<?xml version="1.0" encoding="UTF-8"?>
<svg id="Layer_1" data-name="Layer 1" xmlns="http://www.w3.org/2000/svg" xmlns:xlink="http://www.w3.org/1999/xlink" viewBox="0 0 279.3898 134.0329">
  <defs>
    <style>
      .cls-1 {
        fill: url(#linear-gradient-2);
      }

      .cls-2 {
        fill: url(#linear-gradient-4);
      }

      .cls-3 {
        fill: url(#linear-gradient-3);
      }

      .cls-4 {
        fill: url(#linear-gradient-5);
      }

      .cls-5 {
        opacity: .7;
      }

      .cls-6 {
        fill: none;
        stroke: #000;
        stroke-miterlimit: 10;
        stroke-width: .3px;
      }

      .cls-7 {
        fill: url(#linear-gradient);
      }

      .cls-8 {
        opacity: .5;
      }
    </style>
    <linearGradient id="linear-gradient" x1="285.5343" y1="40.9072" x2="73.0884" y2="44.6573" gradientUnits="userSpaceOnUse">
      <stop offset=".0122" stop-color="#fff" stop-opacity="0"/>
      <stop offset=".0323" stop-color="#fff" stop-opacity=".3125"/>
      <stop offset=".2035" stop-color="#999" stop-opacity=".4671"/>
      <stop offset=".3839" stop-color="#454545" stop-opacity=".5948"/>
      <stop offset=".5455" stop-color="#111" stop-opacity=".6727"/>
      <stop offset=".6712" stop-color="#000" stop-opacity=".7"/>
    </linearGradient>
    <linearGradient id="linear-gradient-2" x1="-15.166" y1="49.9611" x2="58.9923" y2="46.4329" gradientUnits="userSpaceOnUse">
      <stop offset="0" stop-color="#fff" stop-opacity="0"/>
      <stop offset=".9038" stop-color="#000" stop-opacity=".7"/>
    </linearGradient>
    <linearGradient id="linear-gradient-3" x1="134.2581" y1="54.3158" x2="86.2813" y2="53.5557" gradientUnits="userSpaceOnUse">
      <stop offset="0" stop-color="#fff" stop-opacity="0"/>
      <stop offset=".6359" stop-color="#000" stop-opacity=".7"/>
    </linearGradient>
    <linearGradient id="linear-gradient-4" x1="50.8122" y1="64.9016" x2="59.9526" y2="64.9016" gradientUnits="userSpaceOnUse">
      <stop offset="0" stop-color="#fff" stop-opacity="0"/>
      <stop offset="1" stop-color="#000" stop-opacity=".7"/>
    </linearGradient>
    <linearGradient id="linear-gradient-5" x1="55.3668" y1="48.3045" x2="57.6131" y2="48.3045" gradientUnits="userSpaceOnUse">
      <stop offset="0" stop-color="#fff" stop-opacity="0"/>
      <stop offset="1" stop-color="#000" stop-opacity=".7"/>
    </linearGradient>
  </defs>
  <g class="cls-5">
    <polygon class="cls-6" points="137.8953 53.6792 121.8023 53.6792 110.4228 65.0587 110.4228 81.1517 121.8023 92.5312 137.8953 92.5312 149.2748 81.1517 149.2748 65.0587 137.8953 53.6792"/>
    <circle class="cls-6" cx="129.8488" cy="73.1052" r="60.4277"/>
    <line class="cls-6" x1="137.8953" y1="53.6792" x2="102.3127" y2="19.3019"/>
    <line class="cls-6" x1="123.4994" y1="53.6792" x2="72.6115" y2="53.6792"/>
    <line class="cls-6" x1="110.4228" y1="65.0587" x2="75.3482" y2="99.2366"/>
    <line class="cls-6" x1="110.4228" y1="81.1517" x2="110.4228" y2="130.109"/>
    <line class="cls-6" x1="121.8023" y1="92.5312" x2="159.2392" y2="126.3721"/>
    <line class="cls-6" x1="137.8953" y1="92.5312" x2="186.9618" y2="92.8929"/>
    <line class="cls-6" x1="149.2748" y1="81.1517" x2="184.5349" y2="46.8918"/>
    <line class="cls-6" x1="149.2748" y1="65.0587" x2="149.6715" y2="16.0043"/>
  </g>
  <path class="cls-7" d="M213.2344,66.2874c-2.3324,3.0195-6.2342,8.9654-10.5878,5.9184-1.6101-.5575-2.0443-2.0924-2.6716-3.4946-2.8693,1.8898-5.708,3.473-8.4859.5445-3.1884,3.0044-7.6948,8.6738-11.8928,3.8386-2.0956-2.3856-.7697-5.7595-1.5038-8.4051-3.6743,2.86-5.7401,8.7881-11.0473,9.0791-5.8711,1.7135,3.7683-15.2735,3.4839-18.1974-9.3449,10.1375-18.5783,21.7605-30.931,28.5491-12.8743,7.8143-22.4819-7.4233-20.9052-19.2636,1.6511-21.6831,7.0194-47.3556,26.2677-59.9214,10.7971-7.2455,26.1163-6.6433,25.4287,9.5871.4203,2.0082,1.8216,9.808-2.2005,7.236-3.5215-4.861,1.0517-14.5585-6.3969-16.6957-4.8723-2.2199-10.1414.9795-14.4283,3.1032-7.4957,3.945-12.1119,11.0112-16.169,18.1768-5.3827,13.1626-17.5364,49.265.1793,56.3646,12.5758,1.8315,33.1841-25.3595,41.0147-34.8752,5.7834-5.5391,6.8143-26.0791,14.5661-25.343,5.0062,4.0096-6.0355,17.9525-8.3157,22.555-3.0529,7.7341-6.0803,15.6401-9.0285,23.4632,4.1859-2.8765,6.3001-8.0617,10.0396-11.4347,1.2917-.0979,3.883-1.3371,3.8918.9407.2496,2.3571-3.2796,14.1521,1.1708,12.6942,7.1313-3.2778,7.7315-14.0915,15.5091-15.3421,1.5471-.5653,3.2172.9585,4.6886-.1227,3.4324.1701-.7759,6.0714-.4287,8.242-1.558,14.0774,8.3742-2.7905,10.8065-6.7849.4255-.4723.5373-.4976,1.1253-.2203,4.3561-1.2442,2.5657,2.5042,2.8624,5.3229,13.4555-12.5998,8.9326,6.3912,22.1125,7.2306,9.5662.9689,19.1243-1.477,28.6264-2.3669,2.9882-.5161,11.552-2.5656,8.0461,2.8697-2.36-.3669-4.6593,1.0537-6.5721,2.3048-3.6874.7903-.1417-3.2856-7.0602-1.3609-12.6429,1.0776-30.2944,6.9228-37.4871-7.4218-.3318-.7471-.7987-1.8271-1.7656-1.3194-4.3344,1.5603-11.6131,18.5702-11.711,4.6198l-.2305-.0704v-.0002h0ZM197.6028,62.3213c-1.1129.6367-2.9826,4.0945-1.291,4.3803,1.9895-.9224,4.404-3.1952,1.291-4.3803Z"/>
  <g>
    <path class="cls-1" d="M73.3036,72.9088c-1.9982,3.2577-4.0139,6.5853-7.0643,9.0085-5.0034,5.4055-16.564,8.9596-20.2849.5242-.8615-6.9123,3.123-13.436,5.0593-19.8631,2.8263-8.1603,6.2455-15.8963,9.5257-23.8305,1.9011-8.3565,22.6235-38.1827,3.3675-36.4922-6.6992.8079-11.4214,6.4432-16.127,10.66-.252.6805-.7514.3888-.8657-.2203-.9411-9.7253-23.2522,7.3989-26.6127,10.5707-2.7828,2.4976-25.0211,23.4122-17.2521,24.4227.6826.2049,1.3669-.1686,1.6402-.8192.6274-1.698,2.0559-2.6659,3.0207-4.1515,3.0369-4.4072,5.9147-8.9529,9.5929-12.8707,5.1342-4.38,9.8639-9.6917,16.0723-12.572,2.6879-1.6086,5.8795-4.0796,9.0564-3.9758h0c-7.7233,19.6857-17.5002,39.2609-27.3573,58.6736-1.267,2.3345-4.8066,11.6333,1.1149,7.9174,3.3197-4.4512,4.8324-9.8134,7.7952-14.5005,2.9201-6.29,5.4334-12.6883,8.6405-18.8241.2654-2.7295,2.2734-4.8268,2.9307-7.3236,2.3557-3.3964,4.0181-7.2408,5.8245-10.918.342-.6962.5374-.9698.7591-1.4719.58-1.3137,1.4277-2.5249,2.0335-3.8089,1.1237-2.4171,2.9738-3.9145,3.9463-6.0276,4.6391-5.1176,10.4923-12.3585,18.0982-11.7814,4.3397,7.5276-6.2072,22.461-8.543,30.5945-4.5838,10.8858-8.8909,21.9922-12.7536,33.2061-1.3095,5.4673-5.4109,11.1516-3.0772,16.8125,7.134,8.7549,20.7757,4.3038,27.3625-2.9164,1.5802-.6543,2.4112-2.0763,3.4202-3.3667,1.079-.6147,1.5336-1.5441,1.8798-2.712,1.7186-1.1595,1.1508-5.1552-1.2026-3.944Z"/>
    <path class="cls-3" d="M111.0474,74.908c-8.1508-1.1366-9.9481-2.9366-16.1828-8.4767-1.7264-2.2714,5.458-.2155,6.7941-3.2592,4.7106-4.437.8359-14.7032-6.3427-9.4265-1.21.8895-2.8038-.2321-2.398-1.678.009-.032.0178-.064.0264-.0961,1.1065-3.5129,2.723-6.5352,3.7917-9.953l1.7782-4.9517c1.0068-1.7566,2.0393-3.6213,2.3931-5.6435.1866-1.0668-.7925-2.057-1.8363-1.7682-3.7068,1.0255-7.0239,13.691-8.4997,16.4801-.0339.0641-.0612.1233-.0861.1913-1.9644,5.363-2.9534,11.3557-6.8635,15.6799-2.2027,2.4124-8.9798,9.438-11.1355,4.1578-.8053-2.6007.2032-5.2854,2.2053-7.0583.8958-1.1057,1.7982.4346,2.9547.091,1.5003-.2961,1.1347-2.0827.6991-3.2476-.1108-.2963-.2995-.5649-.572-.7256-1.98-1.1678-4.6878-.0464-6.0679,1.7171-8.1971,9.7503-.6734,16.9759,8.301,11.9015,1.0887-.6156,2.3883.251,2.267,1.4957-.586,6.0133,4.0345,3.2268,7.2364-2.5931.3944-.5652.599-.5775,1.0527-.0355,2.2664,2.7428,4.054,3.3458,6.9279,5.2618,7.2911,4.8607,7.0613,5.5408,15.9873,4.8987.4003-.0287,1.3884-.5983,1.6562-.8973,3.0833-3.4429-1.4443-1.6962-4.0866-2.0647ZM94.0445,59.693h-.0001c.9362-1.4767,1.6174-2.8583,3.1616-3.8745,4.1381-2.01,2.5811,10.1938-2.8084,5.9253-.6226-.4931-.7783-1.38-.3531-2.0508Z"/>
    <path class="cls-2" d="M60.3775,74.1577c5.0887-1.0944,4.0382-9.4193,6.2751-13.3717.7176-1.9941,3.1094-6.1969-.9697-4.895-3.9465,1.1198-3.5452,10.7117-5.7365,14.2007-.6333,1.4227-2.2962,4.0277.4311,4.066Z"/>
    <path class="cls-4" d="M66.745,46.9594c-1.1218-.8109-4.1-.2513-3.928,1.7299.0974,2.9768,5.0768.2584,3.928-1.7299Z"/>
  </g>
  <g class="cls-8">
    <path d="M38.574,101.0127h-4.2471v12.418h2.6577v-4.8047l1.5513-.0381c.4917-.0128,1.0845-.1758,1.7783-.4912.6934-.3154,1.2119-.793,1.5557-1.4336.3437-.6396.5156-1.3154.5156-2.0283,0-1.085-.3501-1.959-1.0498-2.625-.7002-.6651-1.6206-.9971-2.7617-.9971ZM39.1364,105.9395c-.3183.3222-.7016.4824-1.1489.4824h-1.0405v-3.1777h0s.5957-.0381.5957-.0381c.662,0,1.1728.1396,1.5322.417.3594.2774.5391.668.5391,1.1729,0,.4415-.1591.8223-.4775,1.1436Z"/>
    <polygon points="57.6604 105.7979 53.2625 105.7979 53.2625 101.0127 50.5857 101.0127 50.5857 113.4307 53.2625 113.4307 53.2625 108.4932 57.6604 108.4932 57.6604 113.4307 60.3372 113.4307 60.3372 101.0127 57.6604 101.0127 57.6604 105.7979"/>
    <path d="M74.7044,100.88c-1.6651,0-3.104.5977-4.3179,1.792-1.2139,1.1953-1.8208,2.7098-1.8208,4.5448,0,1.8477.585,3.3702,1.7544,4.5684,1.1699,1.1982,2.6596,1.7969,4.4692,1.7969s3.3101-.6025,4.502-1.8066,1.7876-2.7177,1.7876-4.54c0-1.8349-.602-3.3525-1.8066-4.5537-1.2041-1.2012-2.7271-1.8018-4.5679-1.8018ZM77.3098,110.0499c-.6401.7148-1.48,1.0732-2.5204,1.0732-.9902,0-1.8101-.3623-2.459-1.0879-.6499-.7246-.9746-1.6397-.9746-2.7432,0-1.166.3184-2.1182.9556-2.8555.6367-.7383,1.4756-1.0977,2.5156-1.0791h0c1.0406.0196,1.8746.379,2.502,1.0792.6269.6992.9409,1.626.9409,2.7803,0,1.1728-.3204,2.1172-.96,2.833Z"/>
    <polygon points="88.1399 103.6515 90.968 103.6515 90.968 113.4307 93.6443 113.4307 93.6443 103.6515 96.4915 103.6515 96.4915 101.0127 88.1399 101.0127 88.1399 103.6515"/>
    <path d="M110.0686,100.88c-1.6651,0-3.104.5977-4.3179,1.792-1.2139,1.1953-1.8208,2.7098-1.8208,4.5448,0,1.8477.585,3.3702,1.7544,4.5684,1.1699,1.1982,2.6596,1.7969,4.4692,1.7969s3.3101-.6025,4.502-1.8066,1.7876-2.7177,1.7876-4.54c0-1.8349-.6021-3.3525-1.8066-4.5537-1.2041-1.2012-2.7271-1.8018-4.5679-1.8018ZM112.6741,110.0499c-.6401.7148-1.48,1.0732-2.5205,1.0732-.9902,0-1.8101-.3623-2.459-1.0879-.6499-.7246-.9746-1.6397-.9746-2.7432,0-1.166.3184-2.1182.9556-2.8555.6367-.7383,1.4756-1.0977,2.5156-1.0791h0c1.0406.0196,1.8746.379,2.502,1.0792.6269.6992.9409,1.626.9409,2.7803,0,1.1728-.3204,2.1172-.96,2.833Z"/>
    <path d="M130.3371,109.0138h2.9414c-.3086.7626-.7173,1.2832-1.2246,1.5605-.5078.2773-1.0357.416-1.584.416-1.0093,0-1.8716-.3701-2.5869-1.1113-.7158-.7403-1.0737-1.6436-1.0737-2.71,0-1.002.3579-1.8721,1.0737-2.6104.7153-.7372,1.5591-1.1064,2.5298-1.1064.5991,0,1.1729.1591,1.7217.4775.5484.3184,1.0089.7997,1.3809,1.4424l1.7778-1.6641h-.0002c-1.1728-1.911-2.8501-2.8661-5.0317-2.8661-1.7085,0-3.1699.6152-4.3838,1.8447-1.2139,1.2295-1.8203,2.7109-1.8203,4.4453,0,1.8282.5894,3.3633,1.7686,4.6055,1.1787,1.2422,2.626,1.8633,4.3413,1.8633.9458,0,1.8819-.2187,2.8091-.6572.9267-.4375,1.6738-1.132,2.2412-2.0801.5674-.9492.8516-1.8369.8516-2.6631v-1.6074h-5.7319v2.4209Z"/>
    <path d="M151.7258,106.6367c.3311-.6866.4971-1.3487.4971-1.9854,0-1.1152-.3614-2.0009-1.084-2.6562-.7227-.6553-1.7061-.9824-2.9492-.9824h-4.0909v12.418h2.6768v-4.8047h.3027l3.2139,4.8047h3.0752l-3.4745-5.1768c.8896-.3906,1.501-.9297,1.8329-1.6172ZM147.3733,106.46h-.5791v-3.2343h.6172c.6455,0,1.1494.1367,1.5137.4111.3643.2744.5459.6445.5459,1.1113,0,1.1416-.6993,1.7119-2.0977,1.7119Z"/>
    <path d="M165.7942,101.0127l-4.9736,12.418h2.6797l.9736-2.4404h4.7656l.9941,2.4404h2.6934l-5.0586-12.418h-2.0742ZM165.3713,108.7393l1.46-3.6602,1.4912,3.6602h-2.9512Z"/>
    <path d="M185.1761,101.0127h-4.2471,0v12.418h2.6572v-4.8047l1.5518-.0381c.4912-.0128,1.084-.1758,1.7783-.4912.6934-.3154,1.2119-.793,1.5557-1.4336.3437-.6396.5156-1.3154.5156-2.0283,0-1.085-.3506-1.959-1.0498-2.625-.7003-.6651-1.6212-.9971-2.7617-.9971ZM185.7385,105.9395c-.3183.3222-.7021.4824-1.1494.4824h-1.04v-3.1777h-.0001s.5957-.0381.5957-.0381c.6621,0,1.1729.1396,1.5322.417s.5391.668.5391,1.1729c0,.4415-.1591.8223-.4775,1.1436Z"/>
    <polygon points="204.262 105.7979 199.8645 105.7979 199.8645 101.0127 197.1877 101.0127 197.1877 113.4307 199.8645 113.4307 199.8645 108.4932 204.262 108.4932 204.262 113.4307 206.9388 113.4307 206.9388 101.0127 204.262 101.0127 204.262 105.7979"/>
    <polygon points="222.2083 101.0127 219.8841 104.8623 217.5921 101.0127 214.6283 101.0127 218.5814 107.6231 218.5814 113.4307 221.2298 113.4307 221.2298 107.6231 225.1829 101.0127 222.2083 101.0127"/>
  </g>
</svg>