<?xml version="1.0" encoding="UTF-8"?>
<svg id="Layer_1" xmlns="http://www.w3.org/2000/svg" version="1.1" viewBox="0 0 277.5 133.2">
  <!-- Generator: Adobe Illustrator 29.0.1, SVG Export Plug-In . SVG Version: 2.1.0 Build 192)  -->
  <defs>
    <style>
      .st0, .st1, .st2 {
        opacity: .8;
      }

      .st3, .st4, .st2, .st5 {
        fill: #fff;
      }

      .st1, .st4, .st2, .st5 {
        isolation: isolate;
      }

      .st4 {
        letter-spacing: .3em;
      }

      .st4, .st5 {
        font-family: TwCenMT-Bold, 'Tw Cen MT';
        font-size: 19.4px;
        font-weight: 700;
      }

      .st6 {
        fill: none;
        stroke: #fff;
        stroke-miterlimit: 10;
        stroke-width: .3px;
      }

      .st5 {
        letter-spacing: .3em;
      }
    </style>
  </defs>
  <g class="st0">
    <polygon class="st6" points="136.5 53.2 120.4 53.2 109 64.6 109 80.7 120.4 92 136.5 92 147.9 80.7 147.9 64.6 136.5 53.2"/>
    <circle class="st6" cx="128.4" cy="72.6" r="60.4"/>
    <line class="st6" x1="136.5" y1="53.2" x2="100.9" y2="18.8"/>
    <line class="st6" x1="122.1" y1="53.2" x2="71.2" y2="53.2"/>
    <line class="st6" x1="109" y1="64.6" x2="73.9" y2="98.7"/>
    <line class="st6" x1="109" y1="80.7" x2="109" y2="129.6"/>
    <line class="st6" x1="120.4" y1="92" x2="157.8" y2="125.9"/>
    <line class="st6" x1="136.5" y1="92" x2="185.6" y2="92.4"/>
    <line class="st6" x1="147.9" y1="80.7" x2="183.1" y2="46.4"/>
    <line class="st6" x1="147.9" y1="64.6" x2="148.3" y2="15.5"/>
  </g>
  <path class="st2" d="M211.8,65.8c-2.3,3-6.2,9-10.6,5.9-1.6-.6-2-2.1-2.7-3.5-2.9,1.9-5.7,3.5-8.5.5-3.2,3-7.7,8.7-11.9,3.8-2.1-2.4-.8-5.8-1.5-8.4-3.7,2.9-5.7,8.8-11,9.1-5.9,1.7,3.8-15.3,3.5-18.2-9.3,10.1-18.6,21.8-30.9,28.5-12.9,7.8-22.5-7.4-20.9-19.3,1.7-21.7,7-47.4,26.3-59.9,10.8-7.2,26.1-6.6,25.4,9.6.4,2,1.8,9.8-2.2,7.2-3.5-4.9,1.1-14.6-6.4-16.7-4.9-2.2-10.1,1-14.4,3.1-7.5,3.9-12.1,11-16.2,18.2-5.4,13.2-17.5,49.3.2,56.4,12.6,1.8,33.2-25.4,41-34.9,5.8-5.5,6.8-26.1,14.6-25.3,5,4-6,18-8.3,22.6-3.1,7.7-6.1,15.6-9,23.5,4.2-2.9,6.3-8.1,10-11.4,1.3,0,3.9-1.3,3.9.9.2,2.4-3.3,14.2,1.2,12.7,7.1-3.3,7.7-14.1,15.5-15.3,1.5-.6,3.2,1,4.7-.1,3.4.2-.8,6.1-.4,8.2-1.6,14.1,8.4-2.8,10.8-6.8.4-.5.5-.5,1.1-.2,4.4-1.2,2.6,2.5,2.9,5.3,13.5-12.6,8.9,6.4,22.1,7.2,9.6,1,19.1-1.5,28.6-2.4,3-.5,11.6-2.6,8,2.9-2.4-.4-4.7,1.1-6.6,2.3-3.7.8-.1-3.3-7.1-1.4-12.6,1.1-30.3,6.9-37.5-7.4-.3-.7-.8-1.8-1.8-1.3-4.3,1.6-11.6,18.6-11.7,4.6h-.2ZM195.8,60c-1.1.6-3,4.1-1.3,4.4,2-.9,4.4-3.2,1.3-4.4Z"/>
  <g class="st0">
    <path class="st3" d="M41,12.8c-3.2-.1-6.4,2.4-9.1,4-6.2,2.9-10.9,8.2-16.1,12.6-3.7,3.9-6.6,8.5-9.6,12.9-1,1.5-2.4,2.5-3,4.2-.3.7-1,1-1.6.8-7.8-1,14.5-21.9,17.3-24.4,3.4-3.2,25.7-20.3,26.6-10.6.1.6.6.9.9.2,4.7-4.2,9.4-9.9,16.1-10.7,19.3-1.7-1.5,28.1-3.4,36.5-3.3,7.9-6.7,15.7-9.5,23.8-1.9,6.4-5.9,13-5.1,19.9,3.7,8.4,15.3,4.9,20.3-.5,3.1-2.4,5.1-5.8,7.1-9,2.4-1.2,2.9,2.8,1.2,3.9-.3,1.2-.8,2.1-1.9,2.7-1,1.3-1.8,2.7-3.4,3.4-6.6,7.2-20.2,11.7-27.4,2.9-2.3-5.7,1.8-11.3,3.1-16.8,3.9-11.2,8.2-22.3,12.8-33.2,2.3-8.1,12.9-23.1,8.5-30.6-7.6-.6-13.5,6.7-18.1,11.8-1,2.1-2.8,3.6-3.9,6-.6,1.3-1.5,2.5-2,3.8-.2.5-.4.8-.8,1.5-1.8,3.7-3.5,7.5-5.8,10.9-.7,2.5-2.7,4.6-2.9,7.3-3.2,6.1-5.7,12.5-8.6,18.8-3,4.7-4.5,10-7.8,14.5-5.9,3.7-2.4-5.6-1.1-7.9,9.9-19.4,19.6-39,27.4-58.7h0Z"/>
    <path class="st3" d="M95.3,41.5c-1.1,3.4-2.7,6.4-3.8,10,0,0,0,0,0,0-.4,1.4,1.2,2.6,2.4,1.7,7.2-5.3,11.1,5,6.3,9.4-1.3,3-8.5,1-6.8,3.3,6.2,5.5,8,7.3,16.2,8.5,2.6.4,7.2-1.4,4.1,2.1-.3.3-1.3.9-1.7.9-8.9.6-8.7,0-16-4.9-2.9-1.9-4.7-2.5-6.9-5.3-.5-.5-.7-.5-1.1,0-3.2,5.8-7.8,8.6-7.2,2.6.1-1.2-1.2-2.1-2.3-1.5-9,5.1-16.5-2.2-8.3-11.9,1.4-1.8,4.1-2.9,6.1-1.7.3.2.5.4.6.7.4,1.2.8,3-.7,3.2-1.2.3-2.1-1.2-3,0-2,1.8-3,4.5-2.2,7.1,2.2,5.3,8.9-1.7,11.1-4.2,3.9-4.3,4.9-10.3,6.9-15.7,0,0,0-.1,0-.2,1.5-2.8,4.8-15.5,8.5-16.5,1-.3,2,.7,1.8,1.8-.4,2-1.4,3.9-2.4,5.6M92.6,59.2c-.4.7-.3,1.6.4,2.1,5.4,4.3,6.9-7.9,2.8-5.9-1.5,1-2.2,2.4-3.2,3.9h0Z"/>
    <path class="st3" d="M64.3,55.4c4.1-1.3,1.7,2.9,1,4.9-2.2,4-1.2,12.3-6.3,13.4-2.7,0-1.1-2.6-.4-4.1,2.2-3.5,1.8-13.1,5.7-14.2Z"/>
    <path class="st3" d="M61.4,48.2c-.2-2,2.8-2.5,3.9-1.7,1.1,2-3.8,4.7-3.9,1.7Z"/>
  </g>
  <g class="st1">
    <text class="st4" transform="translate(31.6 112.9)"><tspan x="0" y="0">PH</tspan></text>
    <text class="st5" transform="translate(66.3 112.9)"><tspan x="0" y="0">OT</tspan></text>
    <text class="st4" transform="translate(101.7 112.9)"><tspan x="0" y="0">OGRAPHY</tspan></text>
  </g>
</svg>