<?xml version="1.0" encoding="UTF-8"?>
<svg id="Layer_1" data-name="Layer 1" xmlns="http://www.w3.org/2000/svg" xmlns:xlink="http://www.w3.org/1999/xlink" viewBox="0 0 277.4784 133.1829">
  <defs>
    <style>
      .cls-1 {
        fill: url(#linear-gradient-15);
      }

      .cls-2 {
        fill: url(#linear-gradient-13);
      }

      .cls-3 {
        stroke: url(#linear-gradient-8);
      }

      .cls-3, .cls-4, .cls-5, .cls-6, .cls-7, .cls-8, .cls-9, .cls-10, .cls-11, .cls-12 {
        fill: none;
        stroke-miterlimit: 10;
        stroke-width: .3px;
      }

      .cls-13 {
        fill: url(#linear-gradient-25);
      }

      .cls-14 {
        fill: url(#linear-gradient-12);
      }

      .cls-4 {
        stroke: url(#linear-gradient-4);
      }

      .cls-5 {
        stroke: url(#linear-gradient-10);
      }

      .cls-6 {
        stroke: url(#linear-gradient-5);
      }

      .cls-15 {
        fill: url(#radial-gradient);
      }

      .cls-7 {
        stroke: url(#linear-gradient-3);
      }

      .cls-16 {
        fill: url(#linear-gradient-22);
      }

      .cls-17 {
        fill: url(#linear-gradient-24);
      }

      .cls-18 {
        fill: url(#linear-gradient-14);
      }

      .cls-19 {
        fill: url(#linear-gradient-20);
      }

      .cls-8 {
        stroke: url(#linear-gradient);
      }

      .cls-20 {
        fill: url(#linear-gradient-17);
      }

      .cls-9 {
        stroke: url(#linear-gradient-6);
      }

      .cls-21 {
        fill: url(#linear-gradient-11);
      }

      .cls-22 {
        fill: url(#linear-gradient-19);
      }

      .cls-10 {
        stroke: url(#linear-gradient-7);
      }

      .cls-23 {
        opacity: .7;
      }

      .cls-24 {
        fill: url(#linear-gradient-21);
      }

      .cls-11 {
        stroke: url(#linear-gradient-9);
      }

      .cls-25 {
        fill: url(#linear-gradient-16);
      }

      .cls-26 {
        fill: url(#linear-gradient-23);
      }

      .cls-12 {
        stroke: url(#linear-gradient-2);
      }

      .cls-27 {
        fill: url(#linear-gradient-18);
      }
    </style>
    <linearGradient id="linear-gradient" x1="108.8614" y1="72.6052" x2="148.0134" y2="72.6052" gradientUnits="userSpaceOnUse">
      <stop offset="0" stop-color="#000" stop-opacity=".5"/>
      <stop offset=".9951" stop-color="#000" stop-opacity=".7"/>
    </linearGradient>
    <linearGradient id="linear-gradient-2" x1="67.8597" y1="72.6052" x2="189.0151" y2="72.6052" xlink:href="#linear-gradient"/>
    <linearGradient id="linear-gradient-3" x1="100.797" y1="35.9906" x2="136.5881" y2="35.9906" xlink:href="#linear-gradient"/>
    <linearGradient id="linear-gradient-4" x1="71.2001" y1="53.1792" x2="122.088" y2="53.1792" xlink:href="#linear-gradient"/>
    <linearGradient id="linear-gradient-5" x1="73.8321" y1="81.6477" x2="109.1161" y2="81.6477" xlink:href="#linear-gradient"/>
    <linearGradient id="linear-gradient-6" y1="105.1304" x2="109.1614" y2="105.1304" xlink:href="#linear-gradient"/>
    <linearGradient id="linear-gradient-7" x1="120.2903" y1="108.9517" x2="157.9284" y2="108.9517" xlink:href="#linear-gradient"/>
    <linearGradient id="linear-gradient-8" x1="136.4828" y1="92.2121" x2="185.5515" y2="92.2121" xlink:href="#linear-gradient"/>
    <linearGradient id="linear-gradient-9" x1="147.7588" y1="63.5218" x2="183.228" y2="63.5218" xlink:href="#linear-gradient"/>
    <linearGradient id="linear-gradient-10" x1="147.7134" y1="40.0315" x2="148.4101" y2="40.0315" xlink:href="#linear-gradient"/>
    <radialGradient id="radial-gradient" cx="197.2951" cy="42.8795" fx="197.2951" fy="42.8795" r="64.2962" gradientUnits="userSpaceOnUse">
      <stop offset="0" stop-color="#fff" stop-opacity=".7"/>
      <stop offset=".5201" stop-color="#000" stop-opacity=".7"/>
    </radialGradient>
    <linearGradient id="linear-gradient-11" x1="91.6518" y1="90.5904" x2="38.1024" y2="39.3841" gradientUnits="userSpaceOnUse">
      <stop offset="0" stop-color="#fff" stop-opacity=".7"/>
      <stop offset="1" stop-color="#000" stop-opacity=".7"/>
    </linearGradient>
    <linearGradient id="linear-gradient-12" x1="68.6081" y1="79.6515" x2="107.1793" y2="51.66" gradientUnits="userSpaceOnUse">
      <stop offset=".0069" stop-color="#fff" stop-opacity=".7"/>
      <stop offset=".0476" stop-color="#e3e3e3" stop-opacity=".7"/>
      <stop offset=".1498" stop-color="#a7a7a7" stop-opacity=".7"/>
      <stop offset=".2576" stop-color="#737373" stop-opacity=".7"/>
      <stop offset=".3701" stop-color="#494949" stop-opacity=".7"/>
      <stop offset=".4888" stop-color="#292929" stop-opacity=".7"/>
      <stop offset=".6166" stop-color="#111" stop-opacity=".7"/>
      <stop offset=".7598" stop-color="#040404" stop-opacity=".7"/>
      <stop offset=".9506" stop-color="#000" stop-opacity=".7"/>
    </linearGradient>
    <linearGradient id="linear-gradient-13" x1="67.4802" y1="65.7274" x2="58.6139" y2="63.5061" gradientUnits="userSpaceOnUse">
      <stop offset="0" stop-color="#fff" stop-opacity=".7"/>
      <stop offset="1" stop-color="#000" stop-opacity=".7"/>
    </linearGradient>
    <linearGradient id="linear-gradient-14" x1="64.6306" y1="49.6099" x2="62.4798" y2="46.111" gradientUnits="userSpaceOnUse">
      <stop offset="0" stop-color="#fff" stop-opacity=".7"/>
      <stop offset="1" stop-color="#000" stop-opacity=".7"/>
    </linearGradient>
    <linearGradient id="linear-gradient-15" x1="51.3571" y1="98.0774" x2="31.4116" y2="108.1526" gradientUnits="userSpaceOnUse">
      <stop offset=".4318" stop-color="#fff" stop-opacity=".7"/>
      <stop offset=".8795" stop-color="#000" stop-opacity=".7"/>
    </linearGradient>
    <linearGradient id="linear-gradient-16" x1="60.9316" y1="103.6338" x2="52.0347" y2="107.626" gradientUnits="userSpaceOnUse">
      <stop offset="0" stop-color="#fff" stop-opacity=".7"/>
      <stop offset=".0815" stop-color="#e7e7e7" stop-opacity=".7"/>
      <stop offset=".5307" stop-color="#6b6b6b" stop-opacity=".7"/>
      <stop offset=".8471" stop-color="#1e1e1e" stop-opacity=".7"/>
      <stop offset="1" stop-color="#000" stop-opacity=".7"/>
    </linearGradient>
    <linearGradient id="linear-gradient-17" x1="78.2407" y1="101.1004" x2="70.0997" y2="110.6033" gradientUnits="userSpaceOnUse">
      <stop offset="0" stop-color="#fff" stop-opacity=".7"/>
      <stop offset="1" stop-color="#000" stop-opacity=".7"/>
    </linearGradient>
    <linearGradient id="linear-gradient-18" x1="99.7446" y1="97.3902" x2="87.2684" y2="108.7331" gradientUnits="userSpaceOnUse">
      <stop offset=".2052" stop-color="#fff" stop-opacity=".7"/>
      <stop offset=".5303" stop-color="#949494" stop-opacity=".7"/>
      <stop offset="1" stop-color="#000" stop-opacity=".7"/>
    </linearGradient>
    <linearGradient id="linear-gradient-19" x1="112.5972" y1="100.5556" x2="106.0146" y2="111.1975" gradientUnits="userSpaceOnUse">
      <stop offset="0" stop-color="#fff" stop-opacity=".7"/>
      <stop offset="1" stop-color="#000" stop-opacity=".7"/>
    </linearGradient>
    <linearGradient id="linear-gradient-20" x1="128.5263" y1="99.5557" x2="128.7465" y2="111.5654" xlink:href="#linear-gradient-19"/>
    <linearGradient id="linear-gradient-21" x1="142.6681" y1="101.6489" x2="147.7076" y2="109.4277" xlink:href="#linear-gradient-19"/>
    <linearGradient id="linear-gradient-22" x1="160.3313" y1="103.5989" x2="168.0806" y2="112.9002" xlink:href="#linear-gradient-19"/>
    <linearGradient id="linear-gradient-23" x1="178.387" y1="102.128" x2="183.8152" y2="108.0841" xlink:href="#linear-gradient-19"/>
    <linearGradient id="linear-gradient-24" x1="194.7775" y1="102.8979" x2="202.9496" y2="108.2174" xlink:href="#linear-gradient-19"/>
    <linearGradient id="linear-gradient-25" x1="212.7847" y1="102.559" x2="222.0656" y2="107.5855" xlink:href="#linear-gradient-19"/>
  </defs>
  <g class="cls-23">
    <polygon class="cls-8" points="136.4839 53.1792 120.3909 53.1792 109.0114 64.5587 109.0114 80.6517 120.3909 92.0312 136.4839 92.0312 147.8634 80.6517 147.8634 64.5587 136.4839 53.1792"/>
    <circle class="cls-12" cx="128.4374" cy="72.6052" r="60.4277"/>
    <line class="cls-7" x1="136.4839" y1="53.1792" x2="100.9013" y2="18.8019"/>
    <line class="cls-4" x1="122.088" y1="53.1792" x2="71.2001" y2="53.1792"/>
    <line class="cls-6" x1="109.0114" y1="64.5587" x2="73.9368" y2="98.7366"/>
    <line class="cls-9" x1="109.0114" y1="80.6517" x2="109.0114" y2="129.609"/>
    <line class="cls-10" x1="120.3909" y1="92.0312" x2="157.8278" y2="125.8721"/>
    <line class="cls-3" x1="136.4839" y1="92.0312" x2="185.5504" y2="92.3929"/>
    <line class="cls-11" x1="147.8634" y1="80.6517" x2="183.1235" y2="46.3918"/>
    <line class="cls-5" x1="147.8634" y1="64.5587" x2="148.2601" y2="15.5043"/>
  </g>
  <path class="cls-15" d="M211.823,65.7874c-2.3324,3.0195-6.2342,8.9654-10.5878,5.9184-1.6101-.5575-2.0443-2.0924-2.6716-3.4946-2.8693,1.8898-5.708,3.473-8.4859.5445-3.1884,3.0044-7.6948,8.6738-11.8928,3.8386-2.0956-2.3856-.7697-5.7595-1.5038-8.4051-3.6743,2.86-5.7401,8.7881-11.0473,9.0791-5.8711,1.7135,3.7683-15.2735,3.4839-18.1974-9.3449,10.1375-18.5783,21.7605-30.931,28.5491-12.8743,7.8143-22.4819-7.4233-20.9052-19.2636,1.6511-21.6831,7.0194-47.3556,26.2677-59.9214,10.7971-7.2455,26.1163-6.6433,25.4287,9.5871.4203,2.0082,1.8216,9.808-2.2005,7.236-3.5215-4.861,1.0517-14.5585-6.3969-16.6957-4.8723-2.2199-10.1414.9795-14.4283,3.1032-7.4957,3.945-12.1119,11.0112-16.169,18.1768-5.3827,13.1626-17.5364,49.265.1793,56.3646,12.5758,1.8315,33.1841-25.3595,41.0147-34.8752,5.7834-5.5391,6.8143-26.0791,14.5661-25.343,5.0062,4.0096-6.0355,17.9525-8.3157,22.555-3.0529,7.7341-6.0803,15.6401-9.0285,23.4632,4.1859-2.8765,6.3001-8.0617,10.0396-11.4347,1.2917-.0979,3.883-1.3371,3.8918.9407.2496,2.3571-3.2796,14.1521,1.1708,12.6942,7.1313-3.2778,7.7315-14.0915,15.5091-15.3421,1.5471-.5653,3.2172.9585,4.6886-.1227,3.4324.1701-.7759,6.0714-.4287,8.242-1.558,14.0774,8.3742-2.7905,10.8065-6.7849.4255-.4723.5373-.4976,1.1253-.2203,4.3561-1.2442,2.5657,2.5042,2.8624,5.3229,13.4555-12.5998,8.9326,6.3912,22.1125,7.2306,9.5662.9689,19.1243-1.477,28.6264-2.3669,2.9882-.5161,11.552-2.5656,8.0461,2.8697-2.36-.3669-4.6593,1.0537-6.5721,2.3048-3.6874.7903-.1417-3.2856-7.0602-1.3609-12.6429,1.0776-30.2944,6.9228-37.4871-7.4218-.3318-.7471-.7987-1.8271-1.7656-1.3194-4.3344,1.5603-11.6131,18.5702-11.711,4.6198l-.2305-.0704v-.0002ZM196.1914,61.8213c-1.1129.6367-2.9826,4.0945-1.291,4.3803,1.9895-.9224,4.404-3.1952,1.291-4.3803Z"/>
  <g>
    <path class="cls-21" d="M41.0205,12.7997c-3.1769-.1038-6.3685,2.3672-9.0564,3.9758-6.2084,2.8803-10.9381,8.192-16.0723,12.572-3.6782,3.9178-6.556,8.4635-9.5929,12.8707-.9648,1.4856-2.3933,2.4535-3.0207,4.1515-.2733.6505-.9576,1.024-1.6402.8191-7.769-1.0105,14.4693-21.9251,17.2521-24.4227,3.3605-3.1718,25.6716-20.296,26.6127-10.5707.1143.6091.6138.9008.8657.2203,4.7056-4.2168,9.4278-9.8521,16.127-10.66,19.256-1.6905-1.4664,28.1357-3.3675,36.4922-3.2802,7.9342-6.6994,15.6702-9.5257,23.8305-1.9362,6.4271-5.9208,12.9508-5.0593,19.8631,3.7209,8.4354,15.2815,4.8813,20.2849-.5242,3.0504-2.4232,5.0661-5.7508,7.0643-9.0085,2.3534-1.2112,2.9212,2.7845,1.2026,3.944-.3462,1.1679-.8008,2.0973-1.8798,2.712-1.009,1.2904-1.84,2.7124-3.4202,3.3667-6.5868,7.2202-20.2285,11.6713-27.3625,2.9164-2.3337-5.6609,1.7677-11.3452,3.0772-16.8125,3.8627-11.2139,8.1698-22.3203,12.7536-33.2061,2.3358-8.1335,12.8827-23.0669,8.543-30.5945-7.6059-.5771-13.4591,6.6638-18.0982,11.7814-.9725,2.1131-2.8226,3.6105-3.9463,6.0276-.6058,1.284-1.4535,2.4952-2.0335,3.8089-.2217.5021-.4171.7757-.7591,1.4719-1.8064,3.6772-3.4688,7.5216-5.8245,10.918-.6573,2.4968-2.6653,4.5941-2.9307,7.3236-3.2071,6.1358-5.7204,12.5341-8.6405,18.8241-2.9628,4.6871-4.4755,10.0493-7.7952,14.5005-5.9215,3.7159-2.3819-5.5829-1.1149-7.9174,9.8571-19.4128,19.634-38.988,27.3573-58.6736h0Z"/>
    <path class="cls-14" d="M95.3247,41.5185c-1.0687,3.4178-2.6852,6.4401-3.7917,9.953-.0086.0321-.0174.0641-.0264.0961-.4058,1.4459,1.188,2.5675,2.398,1.678,7.1786-5.2767,11.0533,4.9895,6.3427,9.4265-1.3361,3.0437-8.5205.9878-6.7941,3.2592,6.2347,5.5401,8.032,7.3401,16.1828,8.4767,2.6423.3685,7.1699-1.3782,4.0866,2.0647-.2678.299-1.2559.8685-1.6562.8973-8.926.6421-8.6962-.038-15.9873-4.8987-2.874-1.916-4.6615-2.519-6.9279-5.2618-.4537-.542-.6583-.5298-1.0527.0355-3.2019,5.8199-7.8224,8.6064-7.2364,2.5931.1213-1.2447-1.1783-2.1113-2.267-1.4957-8.9744,5.0744-16.4981-2.1512-8.301-11.9015,1.3801-1.7635,4.0879-2.8849,6.0679-1.7171.2725.1607.4612.4293.572.7256.4356,1.1649.8012,2.9515-.6991,3.2476-1.1565.3436-2.0589-1.1967-2.9547-.091-2.0021,1.7729-3.0106,4.4576-2.2053,7.0583,2.1557,5.2802,8.9328-1.7454,11.1355-4.1578,3.9101-4.3242,4.8991-10.3169,6.8635-15.6799.0249-.0681.0522-.1273.0861-.1914,1.4758-2.7891,4.7929-15.4546,8.4997-16.4801,1.0438-.2888,2.0229.7014,1.8363,1.7682-.3538,2.0222-1.3863,3.8869-2.3931,5.6435M92.6331,59.193c-.4252.6708-.2695,1.5577.3531,2.0508,5.3895,4.2686,6.9465-7.9353,2.8084-5.9253-1.5442,1.0162-2.2254,2.3977-3.1616,3.8745h0Z"/>
    <path class="cls-2" d="M64.2715,55.391c4.0791-1.3019,1.6873,2.9009.9697,4.895-2.2369,3.9524-1.1864,12.2773-6.2751,13.3717-2.7273-.0383-1.0644-2.6433-.4311-4.066,2.1913-3.489,1.79-13.081,5.7365-14.2007Z"/>
    <path class="cls-18" d="M61.4056,48.1893c-.172-1.9812,2.8062-2.5408,3.928-1.7299,1.1488,1.9883-3.8306,4.7067-3.928,1.7299Z"/>
  </g>
  <g>
    <path class="cls-1" d="M32.9155,100.5127h4.2471c1.1411,0,2.0615.332,2.7617.9971.6997.666,1.0498,1.54,1.0498,2.625,0,.7129-.1719,1.3887-.5156,2.0283-.3438.6406-.8623,1.1182-1.5557,1.4336-.6938.3154-1.2866.4785-1.7783.4912l-1.5513.0381v4.8047h-2.6577v-12.418ZM35.5356,102.7442v3.1777h1.0405c.4473,0,.8306-.1602,1.1489-.4824.3184-.3213.4775-.7021.4775-1.1436,0-.5049-.1797-.8955-.5391-1.1729s-.8701-.417-1.5322-.417l-.5957.0381Z"/>
    <path class="cls-25" d="M49.1743,100.5127h2.6768v4.7852h4.3979v-4.7852h2.6768v12.418h-2.6768v-4.9375h-4.3979v4.9375h-2.6768v-12.418Z"/>
    <path class="cls-20" d="M67.1543,106.7168c0-1.835.6069-3.3496,1.8208-4.5449,1.2139-1.1943,2.6528-1.792,4.3179-1.792,1.8408,0,3.3638.6006,4.5679,1.8018,1.2046,1.2012,1.8066,2.7188,1.8066,4.5537,0,1.8223-.5957,3.3359-1.7876,4.54s-2.6924,1.8066-4.502,1.8066-3.2993-.5986-4.4692-1.7969c-1.1694-1.1982-1.7544-2.7207-1.7544-4.5684ZM73.4155,102.8574c-1.04-.0186-1.8789.3408-2.5156,1.0791-.6372.7373-.9556,1.6895-.9556,2.8555,0,1.1035.3247,2.0186.9746,2.7432.6489.7256,1.4688,1.0879,2.459,1.0879,1.0405,0,1.8804-.3584,2.5205-1.0732.6396-.7158.96-1.6602.96-2.833,0-1.1543-.314-2.0811-.9409-2.7803-.6274-.7002-1.4614-1.0596-2.502-1.0791Z"/>
    <path class="cls-27" d="M86.7285,100.5127h8.3516v2.6387h-2.8472v9.7793h-2.6763v-9.7793h-2.8281v-2.6387Z"/>
    <path class="cls-22" d="M102.5185,106.7168c0-1.835.6069-3.3496,1.8208-4.5449,1.2139-1.1943,2.6528-1.792,4.3179-1.792,1.8408,0,3.3638.6006,4.5679,1.8018,1.2046,1.2012,1.8066,2.7188,1.8066,4.5537,0,1.8223-.5957,3.3359-1.7876,4.54s-2.6924,1.8066-4.502,1.8066-3.2993-.5986-4.4692-1.7969c-1.1694-1.1982-1.7544-2.7207-1.7544-4.5684ZM108.7798,102.8574c-1.04-.0186-1.8789.3408-2.5156,1.0791-.6372.7373-.9556,1.6895-.9556,2.8555,0,1.1035.3247,2.0186.9746,2.7432.6489.7256,1.4688,1.0879,2.459,1.0879,1.0405,0,1.8804-.3584,2.5205-1.0732.6396-.7158.96-1.6602.96-2.833,0-1.1543-.314-2.0811-.9409-2.7803-.6274-.7002-1.4614-1.0596-2.502-1.0791Z"/>
    <path class="cls-19" d="M133.8818,103.208l-1.7778,1.6641c-.3721-.6426-.8325-1.124-1.3809-1.4424-.5488-.3184-1.1226-.4775-1.7217-.4775-.9707,0-1.8145.3691-2.5298,1.1064-.7158.7383-1.0737,1.6084-1.0737,2.6104,0,1.0664.3579,1.9697,1.0737,2.71.7153.7412,1.5776,1.1113,2.5869,1.1113.5483,0,1.0762-.1387,1.584-.416.5073-.2773.916-.7979,1.2246-1.5605h-2.9414v-2.4209h5.7319v1.6074c0,.8262-.2842,1.7139-.8516,2.6631-.5674.9482-1.3145,1.6426-2.2412,2.0801-.9272.4385-1.8633.6572-2.8091.6572-1.7153,0-3.1626-.6211-4.3413-1.8633-1.1792-1.2422-1.7686-2.7773-1.7686-4.6055,0-1.7344.6064-3.2158,1.8203-4.4453s2.6753-1.8447,4.3838-1.8447c2.1816,0,3.8589.9551,5.0317,2.8662Z"/>
    <path class="cls-24" d="M142.6875,100.5127h4.0908c1.2432,0,2.2266.3271,2.9492.9824s1.084,1.541,1.084,2.6562c0,.6367-.166,1.2988-.4971,1.9854-.332.6875-.9434,1.2266-1.833,1.6172l3.4746,5.1768h-3.0752l-3.2139-4.8047h-.3027v4.8047h-2.6768v-12.418ZM145.3828,102.7256v3.2344h.5791c1.3984,0,2.0977-.5703,2.0977-1.7119,0-.4668-.1816-.8369-.5459-1.1113s-.8682-.4111-1.5137-.4111h-.6172Z"/>
    <path class="cls-16" d="M164.3828,100.5127h2.0742l5.0586,12.418h-2.6934l-.9941-2.4404h-4.7656l-.9736,2.4404h-2.6797l4.9736-12.418ZM165.4199,104.5791l-1.46,3.6602h2.9512l-1.4912-3.6602Z"/>
    <path class="cls-26" d="M179.5176,100.5127h4.2471c1.1406,0,2.0615.332,2.7617.9971.6992.666,1.0498,1.54,1.0498,2.625,0,.7129-.1719,1.3887-.5156,2.0283-.3438.6406-.8623,1.1182-1.5557,1.4336-.6943.3154-1.2871.4785-1.7783.4912l-1.5518.0381v4.8047h-2.6572v-12.418ZM182.1377,102.7442v3.1777h1.04c.4473,0,.8311-.1602,1.1494-.4824.3184-.3213.4775-.7021.4775-1.1436,0-.5049-.1797-.8955-.5391-1.1729s-.8701-.417-1.5322-.417l-.5957.0381Z"/>
    <path class="cls-17" d="M195.7763,100.5127h2.6768v4.7852h4.3975v-4.7852h2.6768v12.418h-2.6768v-4.9375h-4.3975v4.9375h-2.6768v-12.418Z"/>
    <path class="cls-13" d="M213.2168,100.5127h2.9639l2.292,3.8496,2.3242-3.8496h2.9746l-3.9531,6.6104v5.8076h-2.6484v-5.8076l-3.9531-6.6104Z"/>
  </g>
</svg>