<?xml version="1.0" encoding="UTF-8"?>
<svg id="Layer_1" data-name="Layer 1" xmlns="http://www.w3.org/2000/svg" viewBox="0 0 277.4785 133.1831">
  <defs>
    <style>
      .cls-1, .cls-2 {
        fill: #fff;
      }

      .cls-2 {
        font-family: TwCenMT-Bold, 'Tw Cen MT';
        font-size: 19.3701px;
        font-weight: 700;
      }

      .cls-3 {
        letter-spacing: .313em;
      }

      .cls-4 {
        letter-spacing: .3032em;
      }

      .cls-5 {
        fill: none;
        stroke: #fff;
        stroke-miterlimit: 10;
        stroke-width: .3px;
      }
    </style>
  </defs>
  <g>
    <polygon class="cls-5" points="136.4839 53.1794 120.3909 53.1794 109.0114 64.5589 109.0114 80.6519 120.3909 92.0314 136.4839 92.0314 147.8634 80.6519 147.8634 64.5589 136.4839 53.1794"/>
    <circle class="cls-5" cx="128.4374" cy="72.6054" r="60.4277"/>
    <line class="cls-5" x1="136.4839" y1="53.1794" x2="100.9013" y2="18.8021"/>
    <line class="cls-5" x1="122.088" y1="53.1794" x2="71.2001" y2="53.1794"/>
    <line class="cls-5" x1="109.0114" y1="64.5589" x2="73.9368" y2="98.7368"/>
    <line class="cls-5" x1="109.0114" y1="80.6519" x2="109.0114" y2="129.6092"/>
    <line class="cls-5" x1="120.3909" y1="92.0314" x2="157.8278" y2="125.8723"/>
    <line class="cls-5" x1="136.4839" y1="92.0314" x2="185.5504" y2="92.3931"/>
    <line class="cls-5" x1="147.8634" y1="80.6519" x2="183.1235" y2="46.392"/>
    <line class="cls-5" x1="147.8634" y1="64.5589" x2="148.2601" y2="15.5045"/>
  </g>
  <path class="cls-1" d="M211.823,65.7876c-2.3324,3.0195-6.2342,8.9654-10.5878,5.9184-1.6101-.5575-2.0443-2.0924-2.6716-3.4946-2.8693,1.8898-5.708,3.473-8.4859.5445-3.1884,3.0044-7.6948,8.6738-11.8928,3.8386-2.0956-2.3856-.7697-5.7595-1.5038-8.4051-3.6743,2.86-5.7401,8.7881-11.0473,9.0791-5.8711,1.7135,3.7683-15.2735,3.4839-18.1974-9.3449,10.1375-18.5783,21.7605-30.931,28.5491-12.8743,7.8143-22.4819-7.4233-20.9052-19.2636,1.6511-21.6831,7.0194-47.3556,26.2677-59.9214,10.7971-7.2455,26.1163-6.6433,25.4287,9.5871.4203,2.0082,1.8216,9.808-2.2005,7.236-3.5215-4.861,1.0517-14.5585-6.3969-16.6957-4.8723-2.2199-10.1414.9795-14.4283,3.1032-7.4957,3.945-12.1119,11.0112-16.169,18.1768-5.3827,13.1626-17.5364,49.265.1793,56.3646,12.5758,1.8315,33.1841-25.3595,41.0147-34.8752,5.7834-5.5391,6.8143-26.0791,14.5661-25.343,5.0062,4.0096-6.0355,17.9525-8.3157,22.555-3.0529,7.7341-6.0803,15.6401-9.0285,23.4632,4.1859-2.8765,6.3001-8.0617,10.0396-11.4347,1.2917-.0979,3.883-1.3371,3.8918.9407.2496,2.3571-3.2796,14.1521,1.1708,12.6942,7.1313-3.2778,7.7315-14.0915,15.5091-15.3421,1.5471-.5653,3.2172.9585,4.6886-.1227,3.4324.1701-.7759,6.0714-.4287,8.242-1.558,14.0774,8.3742-2.7905,10.8065-6.7849.4255-.4723.5373-.4976,1.1253-.2203,4.3561-1.2442,2.5657,2.5042,2.8624,5.3229,13.4555-12.5998,8.9326,6.3912,22.1125,7.2306,9.5662.9689,19.1243-1.477,28.6264-2.3669,2.9882-.5161,11.552-2.5656,8.0461,2.8697-2.36-.3669-4.6593,1.0537-6.5721,2.3048-3.6874.7903-.1417-3.2856-7.0602-1.3609-12.6429,1.0776-30.2944,6.9228-37.4871-7.4218-.3318-.7471-.7987-1.8271-1.7656-1.3194-4.3344,1.5603-11.6131,18.5702-11.711,4.6198l-.2305-.0704ZM195.8025,59.9664c-1.1129.6367-2.9826,4.0945-1.291,4.3803,1.9895-.9224,4.404-3.1952,1.291-4.3803Z"/>
  <g>
    <path class="cls-1" d="M41.0205,12.7999c-3.1769-.1038-6.3685,2.3672-9.0564,3.9758-6.2084,2.8803-10.9381,8.192-16.0723,12.572-3.6782,3.9178-6.556,8.4635-9.5929,12.8707-.9648,1.4856-2.3933,2.4535-3.0207,4.1515-.2733.6505-.9576,1.024-1.6402.8191-7.769-1.0105,14.4693-21.9251,17.2521-24.4227,3.3605-3.1718,25.6716-20.296,26.6127-10.5707.1143.6091.6138.9008.8657.2203,4.7056-4.2168,9.4278-9.8521,16.127-10.66,19.256-1.6905-1.4664,28.1357-3.3675,36.4922-3.2802,7.9342-6.6994,15.6702-9.5257,23.8305-1.9362,6.4271-5.9208,12.9508-5.0593,19.8631,3.7209,8.4354,15.2815,4.8813,20.2849-.5242,3.0504-2.4232,5.0661-5.7508,7.0643-9.0085,2.3534-1.2112,2.9212,2.7845,1.2026,3.944-.3462,1.1679-.8008,2.0973-1.8798,2.712-1.009,1.2904-1.84,2.7124-3.4202,3.3667-6.5868,7.2202-20.2285,11.6713-27.3625,2.9164-2.3337-5.6609,1.7677-11.3452,3.0772-16.8125,3.8627-11.2139,8.1698-22.3203,12.7536-33.2061,2.3358-8.1335,12.8827-23.0669,8.543-30.5945-7.6059-.5771-13.4591,6.6638-18.0982,11.7814-.9725,2.1131-2.8226,3.6105-3.9463,6.0276-.6058,1.284-1.4535,2.4952-2.0335,3.8089-.2217.5021-.4171.7757-.7591,1.4719-1.8064,3.6772-3.4688,7.5216-5.8245,10.918-.6573,2.4968-2.6653,4.5941-2.9307,7.3236-3.2071,6.1358-5.7204,12.5341-8.6405,18.8241-2.9628,4.6871-4.4755,10.0493-7.7952,14.5005-5.9215,3.7159-2.3819-5.5829-1.1149-7.9174,9.8571-19.4128,19.634-38.988,27.3573-58.6736Z"/>
    <path class="cls-1" d="M95.3247,41.5187c-1.0687,3.4178-2.6852,6.4401-3.7917,9.953-.0086.0321-.0174.0641-.0264.0961-.4058,1.4459,1.188,2.5675,2.398,1.678,7.1786-5.2767,11.0533,4.9895,6.3427,9.4265-1.3361,3.0437-8.5205.9878-6.7941,3.2592,6.2347,5.5401,8.032,7.3401,16.1828,8.4767,2.6423.3685,7.1699-1.3782,4.0866,2.0647-.2678.299-1.2559.8685-1.6562.8973-8.926.6421-8.6962-.038-15.9873-4.8987-2.874-1.916-4.6615-2.519-6.9279-5.2618-.4537-.542-.6583-.5298-1.0527.0355-3.2019,5.8199-7.8224,8.6064-7.2364,2.5931.1213-1.2447-1.1783-2.1113-2.267-1.4957-8.9744,5.0744-16.4981-2.1512-8.301-11.9015,1.3801-1.7635,4.0879-2.8849,6.0679-1.7171.2725.1607.4612.4293.572.7256.4356,1.1649.8012,2.9515-.6991,3.2476-1.1565.3436-2.0589-1.1967-2.9547-.091-2.0021,1.7729-3.0106,4.4576-2.2053,7.0583,2.1557,5.2802,8.9328-1.7454,11.1355-4.1578,3.9101-4.3242,4.8991-10.3169,6.8635-15.6799.0249-.0681.0522-.1273.0861-.1914,1.4758-2.7891,4.7929-15.4546,8.4997-16.4801,1.0438-.2888,2.0229.7014,1.8363,1.7682-.3538,2.0222-1.3863,3.8869-2.3931,5.6435M92.6331,59.1932c-.4252.6708-.2695,1.5577.3531,2.0508,5.3895,4.2686,6.9465-7.9353,2.8084-5.9253-1.5442,1.0162-2.2254,2.3977-3.1616,3.8745Z"/>
    <path class="cls-1" d="M64.2715,55.3912c4.0791-1.3019,1.6873,2.9009.9697,4.895-2.2369,3.9524-1.1864,12.2773-6.2751,13.3717-2.7273-.0383-1.0644-2.6433-.4311-4.066,2.1913-3.489,1.79-13.081,5.7365-14.2007Z"/>
    <path class="cls-1" d="M61.4056,48.1895c-.172-1.9812,2.8062-2.5408,3.928-1.7299,1.1488,1.9883-3.8306,4.7067-3.928,1.7299Z"/>
  </g>
  <text class="cls-2" transform="translate(31.6009 112.9305)"><tspan class="cls-3" x="0" y="0">PH</tspan><tspan class="cls-4" x="34.7021" y="0">OT</tspan><tspan class="cls-3" x="70.0664" y="0">OGRAPHY</tspan></text>
</svg>